<svg width="192" height="24" viewBox="0 0 192 24" fill="none" xmlns="http://www.w3.org/2000/svg">
<mask id="mask0_1566_164" style="mask-type:luminance" maskUnits="userSpaceOnUse" x="0" y="0" width="192" height="24">
<path d="M192 0H0V23.9997H192V0Z" fill="white"/>
</mask>
<g mask="url(#mask0_1566_164)">
<path d="M-0.275146 0.284668H191.725V24.2855H-0.275146V0.284668Z" fill="#DD0000"/>
<path d="M24.9041 10.5413H27.0715V11.5302C27.2611 11.168 27.5595 10.8744 27.9246 10.6908C28.2501 10.5149 28.6425 10.4473 29.0488 10.4473C29.1032 10.4473 29.1977 10.4605 29.4825 10.4742V12.5196C29.3742 12.4657 29.0762 12.303 28.548 12.303C28.2632 12.303 27.8708 12.3432 27.5591 12.6279C27.0984 13.0484 27.0715 13.685 27.0715 14.0098V16.5973H24.9041V10.5413Z" fill="white"/>
<path d="M36.2691 15.7978C35.4699 16.5839 34.5354 16.8005 33.5597 16.8005C32.6791 16.8005 31.7039 16.624 30.864 15.7978C30.2 15.1475 29.929 14.3758 29.929 13.5633C29.929 12.4793 30.4165 11.7752 30.864 11.3415C31.3653 10.8539 32.2459 10.3394 33.5597 10.3394C34.9004 10.3394 35.7678 10.8676 36.2691 11.3415C36.716 11.7752 37.2036 12.4793 37.2036 13.5633C37.2036 14.3763 36.9326 15.1481 36.2691 15.7978ZM32.5983 12.5739C32.4665 12.7029 32.3615 12.8568 32.2894 13.0267C32.2173 13.1965 32.1796 13.3788 32.1783 13.5633C32.1783 13.9289 32.3542 14.2812 32.5983 14.5247C32.8567 14.7839 33.2074 14.93 33.5734 14.931C33.9258 14.931 34.2781 14.782 34.5354 14.5247C34.6667 14.4012 34.7716 14.2523 34.8438 14.087C34.916 13.9218 34.9539 13.7436 34.9554 13.5633C34.9554 13.2379 34.8064 12.8449 34.5354 12.5739C34.2913 12.3435 33.9121 12.1814 33.5734 12.1814C33.2211 12.1814 32.8418 12.3435 32.5983 12.5739Z" fill="white"/>
<path d="M39.9947 10.5412L41.4443 13.6437L42.9207 10.5412H45.3323L42.1759 16.5967H40.6994L37.5706 10.5412H39.9947ZM47.1611 6.80273C47.8383 6.80273 48.3803 7.34418 48.3803 8.02196C48.3803 8.69973 47.8389 9.24119 47.1611 9.24119C46.4833 9.24119 45.9419 8.69918 45.9419 8.02196C45.9419 7.34473 46.4839 6.80273 47.1611 6.80273ZM48.2451 10.5412V16.5967H46.0777V10.5412H48.2451ZM49.7216 10.5412H51.889V11.2998C52.4849 10.5143 53.2842 10.406 53.8124 10.406C54.4358 10.406 55.0992 10.555 55.6005 11.0563C56.1156 11.5713 56.1695 12.0859 56.1695 12.7499V16.5972H54.0021V13.536C54.0021 13.1836 54.0153 12.6553 53.7311 12.3574C53.5277 12.1403 53.2567 12.0996 53.0401 12.0996C52.7015 12.0996 52.4167 12.2216 52.2408 12.3843C52.0237 12.5877 51.8885 12.9802 51.8885 13.3463V16.5972H49.721V10.5418L49.7216 10.5412ZM62.2244 16.4614C61.6417 16.7462 61.1678 16.8001 60.7209 16.8001C59.5424 16.8001 58.7706 16.2987 58.3369 15.8788C57.768 15.323 57.4019 14.5106 57.4019 13.6162C57.4019 13.1806 57.4876 12.7492 57.6553 12.347C57.8224 11.9448 58.0681 11.5797 58.377 11.2729C58.946 10.7314 59.7859 10.3516 60.8155 10.3516C61.1948 10.3516 61.6824 10.4192 62.2244 10.6902V12.5053C61.9396 12.3024 61.5603 12.1122 61.1002 12.1122C60.5852 12.1122 60.2603 12.3156 60.0437 12.5328C59.7458 12.8307 59.6238 13.2237 59.6238 13.5761C59.6238 13.9147 59.7458 14.3072 60.003 14.5919C60.2064 14.8091 60.5588 15.0526 61.114 15.0526C61.4257 15.0526 61.8319 14.985 62.2249 14.6463V16.462L62.2244 16.4614ZM64.5413 6.80273C65.2186 6.80273 65.7606 7.34418 65.7606 8.02196C65.7606 8.69973 65.2191 9.24119 64.5413 9.24119C63.8636 9.24119 63.3221 8.69918 63.3221 8.02196C63.3221 7.34473 63.8641 6.80273 64.5413 6.80273ZM65.6248 10.5412V16.5967H63.4573V10.5412H65.6248ZM73.5223 13.9691H69.0115C69.0115 14.294 69.1335 14.7277 69.3908 14.985C69.5265 15.1202 69.797 15.2829 70.2846 15.2829C70.339 15.2829 70.7183 15.2697 70.9887 15.1202C71.1245 15.0394 71.2735 14.9036 71.368 14.714H73.4409C73.3139 15.1878 73.0611 15.6186 72.7093 15.9607C72.2624 16.3938 71.5577 16.8006 70.2439 16.8006C69.4446 16.8006 68.4827 16.6242 67.7378 15.8793C67.3448 15.4863 66.844 14.7414 66.844 13.5898C66.844 12.5734 67.2233 11.7604 67.7516 11.2459C68.2529 10.7583 69.0384 10.3653 70.2307 10.3653C70.9348 10.3653 71.8429 10.5143 72.5608 11.1915C73.414 12.0045 73.5228 13.0616 73.5228 13.7388L73.5223 13.9691ZM71.5307 12.723C71.4763 12.4926 71.3411 12.2354 71.1784 12.0727C70.8936 11.7879 70.5011 11.7472 70.2846 11.7472C69.9185 11.7472 69.6343 11.8423 69.4039 12.0727C69.233 12.2519 69.1198 12.4785 69.0791 12.723H71.5307ZM78.1282 16.5967V7.56132H80.4715L84.7927 13.088V7.56132H87.1366V16.5967H84.7927L80.4715 11.0695V16.5967H78.1282ZM94.9258 15.7974C94.1265 16.5835 93.192 16.8001 92.2163 16.8001C91.3357 16.8001 90.3606 16.6236 89.5206 15.7974C88.8566 15.1471 88.5856 14.3753 88.5856 13.5629C88.5856 12.4789 89.0732 11.7747 89.5206 11.341C90.0219 10.8534 90.902 10.3389 92.2163 10.3389C93.557 10.3389 94.4245 10.8672 94.9258 11.341C95.3727 11.7747 95.8603 12.4789 95.8603 13.5629C95.8603 14.3759 95.5893 15.1477 94.9258 15.7974ZM91.2549 12.5734C91.123 12.7025 91.018 12.8564 90.946 13.0262C90.874 13.196 90.836 13.3784 90.8349 13.5629C90.8349 13.9284 91.0108 14.2808 91.2549 14.5243C91.5133 14.7835 91.864 14.9295 92.2301 14.9305C92.5824 14.9305 92.9348 14.7816 93.192 14.5243C93.3234 14.4007 93.4284 14.2518 93.5004 14.0866C93.573 13.9214 93.6109 13.7432 93.612 13.5629C93.612 13.2375 93.463 12.8444 93.192 12.5734C92.948 12.3431 92.5687 12.181 92.2301 12.181C91.8777 12.181 91.4984 12.3431 91.2549 12.5734ZM103.203 15.7974C102.403 16.5835 101.469 16.8001 100.493 16.8001C99.6119 16.8001 98.6373 16.6236 97.7974 15.7974C97.1339 15.1471 96.8629 14.3753 96.8629 13.5629C96.8629 12.4789 97.3505 11.7747 97.7974 11.341C98.2987 10.8534 99.1793 10.3389 100.493 10.3389C101.834 10.3389 102.701 10.8672 103.203 11.341C103.649 11.7747 104.137 12.4789 104.137 13.5629C104.137 14.3759 103.866 15.1477 103.203 15.7974ZM99.5311 12.5734C99.3992 12.7025 99.2942 12.8564 99.2222 13.0262C99.1502 13.196 99.1123 13.3784 99.1112 13.5629C99.1112 13.9284 99.2871 14.2808 99.5311 14.5243C99.7895 14.7834 100.14 14.9294 100.506 14.9305C100.859 14.9305 101.21 14.7816 101.468 14.5243C101.6 14.4007 101.705 14.2517 101.777 14.0865C101.849 13.9213 101.887 13.7432 101.888 13.5629C101.888 13.2375 101.739 12.8444 101.468 12.5734C101.224 12.3431 100.845 12.181 100.506 12.181C100.154 12.181 99.7746 12.3431 99.5311 12.5734ZM105.384 10.5412H107.551V11.5301C107.741 11.168 108.039 10.8744 108.404 10.6907C108.73 10.5148 109.123 10.4472 109.529 10.4472C109.583 10.4472 109.678 10.4604 109.962 10.4742V12.5196C109.854 12.4657 109.556 12.303 109.028 12.303C108.743 12.303 108.35 12.3431 108.039 12.6279C107.578 13.0484 107.551 13.6849 107.551 14.0098V16.5972H105.384V10.5412Z" fill="white"/>
<path d="M117.779 16.5965H115.611V15.9331C115.002 16.7186 114.203 16.7999 113.783 16.7999C112.916 16.7999 112.225 16.5152 111.656 15.96C111.046 15.3641 110.681 14.5104 110.681 13.5485C110.681 12.5183 111.114 11.679 111.67 11.1507C112.266 10.5818 113.065 10.3377 113.81 10.3377C114.637 10.3377 115.219 10.7032 115.612 11.1232V6.7207H117.779V16.596L117.779 16.5965ZM115.218 14.5918C115.36 14.4597 115.474 14.3006 115.553 14.1238C115.631 13.9471 115.674 13.7564 115.679 13.5628C115.679 13.2242 115.489 12.8179 115.273 12.5871C115.029 12.3293 114.69 12.1808 114.284 12.1808C114.106 12.1781 113.928 12.2115 113.763 12.279C113.598 12.3464 113.448 12.4465 113.322 12.5733C113.054 12.8494 112.903 13.2186 112.902 13.6034C112.902 13.9151 113.037 14.2675 113.322 14.5522C113.448 14.6806 113.597 14.7827 113.762 14.8524C113.927 14.9222 114.104 14.9582 114.284 14.9584C114.636 14.9584 114.988 14.7952 115.218 14.5918ZM119.458 12.0582H122.885V13.8607H119.458V12.0582Z" fill="white"/>
<path d="M124.796 16.597V7.56161H128.29C128.94 7.56161 129.713 7.65616 130.268 8.26577C130.58 8.60439 130.824 9.15953 130.824 9.95878C130.831 10.3447 130.742 10.7264 130.566 11.0697C130.376 11.4221 130.173 11.6255 129.835 11.7745C130.309 11.8289 130.783 12.0449 131.067 12.3159C131.433 12.6682 131.677 13.2509 131.677 13.9688C131.677 14.8219 131.351 15.4041 131.013 15.7432C130.525 16.2446 129.672 16.597 128.561 16.597H124.796ZM127.139 11.1242H127.573C127.816 11.1242 128.223 11.0973 128.467 10.8395C128.615 10.6905 128.684 10.447 128.684 10.2436C128.684 10.0133 128.603 9.78288 128.467 9.63446C128.318 9.4855 128.033 9.36352 127.573 9.36352H127.139V11.1242ZM127.139 14.7681H127.667C128.318 14.7681 128.86 14.7005 129.117 14.4026C129.225 14.2805 129.307 14.0771 129.307 13.8198C129.307 13.5351 129.212 13.3048 129.077 13.1696C128.792 12.8849 128.21 12.8717 127.627 12.8717H127.139V14.7681ZM132.965 10.5415H135.132V11.5304C135.321 11.1682 135.62 10.8746 135.985 10.691C136.311 10.5151 136.703 10.4475 137.109 10.4475C137.164 10.4475 137.258 10.4607 137.543 10.4745V12.5199C137.435 12.466 137.137 12.3033 136.609 12.3033C136.324 12.3033 135.931 12.3434 135.62 12.6282C135.159 13.0487 135.132 13.6852 135.132 14.0101V16.5975H132.965V10.5415ZM143.192 10.5415H145.359V16.597H143.192V15.9335C142.69 16.6239 141.904 16.8003 141.309 16.8003C140.658 16.8003 139.859 16.6101 139.127 15.8383C138.545 15.215 138.26 14.5241 138.26 13.6165C138.26 12.4786 138.707 11.6794 139.195 11.1913C139.71 10.6767 140.509 10.3381 141.376 10.3381C142.351 10.3381 142.934 10.8389 143.192 11.1236V10.5409V10.5415ZM140.916 12.5737C140.647 12.8335 140.491 13.1891 140.483 13.5632C140.483 13.9155 140.632 14.2943 140.903 14.5521C141.133 14.7687 141.512 14.9583 141.878 14.9583C142.23 14.9583 142.582 14.8093 142.853 14.5378C142.985 14.4123 143.088 14.2608 143.158 14.0931C143.229 13.9253 143.263 13.7449 143.259 13.5632C143.259 13.2785 143.178 12.8991 142.839 12.5737C142.636 12.384 142.324 12.1813 141.864 12.1813C141.593 12.1813 141.228 12.2758 140.915 12.5737H140.916ZM149.017 6.72168V11.1242C149.41 10.7042 149.992 10.3386 150.818 10.3386C151.563 10.3386 152.363 10.5821 152.959 11.1516C153.515 11.6799 153.948 12.5193 153.948 13.5495C153.948 14.5114 153.582 15.365 152.973 15.9609C152.404 16.5167 151.713 16.8008 150.846 16.8008C150.426 16.8008 149.627 16.7195 149.017 15.934V16.5975H146.851V6.72168H149.017H149.017ZM151.306 14.5521C151.591 14.2674 151.726 13.9156 151.726 13.6033C151.726 13.1971 151.55 12.8178 151.306 12.5732C151.181 12.4464 151.03 12.3463 150.866 12.2789C150.7 12.2115 150.523 12.1781 150.344 12.1807C149.938 12.1807 149.6 12.3296 149.356 12.5869C149.138 12.8172 148.949 13.224 148.949 13.5626C148.949 13.9282 149.125 14.3344 149.41 14.5917C149.64 14.7951 149.993 14.9577 150.344 14.9577C150.656 14.9577 151.008 14.85 151.306 14.5521ZM159.881 10.5415H162.048V16.597H159.881V15.9335C159.38 16.6239 158.594 16.8003 157.998 16.8003C157.348 16.8003 156.548 16.6101 155.817 15.8383C155.234 15.215 154.95 14.5241 154.95 13.6165C154.95 12.4786 155.397 11.6794 155.885 11.1913C156.399 10.6767 157.199 10.3381 158.065 10.3381C159.041 10.3381 159.623 10.8389 159.881 11.1236V10.5409V10.5415ZM157.605 12.5737C157.336 12.8335 157.18 13.1891 157.172 13.5632C157.172 13.9155 157.321 14.2943 157.592 14.5521C157.822 14.7687 158.202 14.9583 158.567 14.9583C158.92 14.9583 159.271 14.8093 159.542 14.5378C159.674 14.4123 159.778 14.2608 159.848 14.0931C159.918 13.9253 159.952 13.7449 159.949 13.5632C159.949 13.2785 159.867 12.8991 159.529 12.5737C159.325 12.384 159.014 12.1813 158.554 12.1813C158.283 12.1813 157.918 12.2758 157.605 12.5737ZM163.539 10.5415H165.706V11.3001C166.302 10.5146 167.101 10.4063 167.63 10.4063C168.253 10.4063 168.917 10.5553 169.418 11.0566C169.933 11.5716 169.987 12.0862 169.987 12.7502V16.5975H167.82V13.5363C167.82 13.1839 167.833 12.6556 167.549 12.3577C167.345 12.1406 167.075 12.0999 166.858 12.0999C166.519 12.0999 166.234 12.2219 166.059 12.3846C165.841 12.588 165.706 12.9805 165.706 13.3466V16.5975H163.539V10.5415ZM173.862 12.3165V16.5975H171.694V12.3165H171.003V10.5415H171.694V8.55052H173.862V10.5415H175.094V12.3165H173.862Z" fill="white"/>
<path d="M19.3363 13.6027V16.5964H16.9929V7.56104H20.7314C21.5169 7.56104 22.3299 7.71 23.0209 8.37403C23.7256 9.05071 23.8608 9.80984 23.8608 10.5684C23.8608 11.2863 23.7663 12.1263 23.0616 12.8172C22.3569 13.5082 21.5169 13.6027 20.8128 13.6027H19.3363ZM19.3363 11.7057H20.1218C20.3659 11.7057 20.8259 11.6788 21.1107 11.421C21.3954 11.1775 21.4086 10.8119 21.4086 10.5948C21.4086 10.3513 21.3817 10.0259 21.1376 9.78181C20.8666 9.49706 20.4335 9.45639 20.1355 9.45639H19.3363V11.7057Z" fill="white"/>
</g>
</svg>
