

<svg xmlns="http://www.w3.org/2000/svg" width="285" height="133" viewBox="0 0 285 133" fill="none" class="light--hidden">
  <path d="M185.96 48.6701C185.73 48.4401 185.62 48.1701 185.62 47.8701V18.0001C185.62 17.6601 185.73 17.3901 185.96 17.1701C186.19 16.9601 186.46 16.8501 186.77 16.8501H200.23C204.15 16.8501 207.24 17.7501 209.49 19.5601C211.74 21.3701 212.87 24.0001 212.87 27.4601C212.87 30.8901 211.75 33.4701 209.52 35.2001C207.28 36.9301 204.19 37.8001 200.24 37.8001H194.18V47.8601C194.18 48.2001 194.07 48.4701 193.83 48.6901C193.6 48.9101 193.32 49.0101 192.98 49.0101H186.78C186.46 49.0201 186.19 48.9001 185.96 48.6701ZM199.99 31.4601C201.34 31.4601 202.39 31.1201 203.16 30.4301C203.92 29.7401 204.31 28.7201 204.31 27.3701C204.31 26.1101 203.95 25.1101 203.23 24.3601C202.51 23.6101 201.43 23.2301 199.99 23.2301H194.02V31.4501H199.99V31.4601Z" fill="white"></path>
  <path d="M225.02 46.3001C222.6 44.1901 221.4 41.0001 221.4 36.7501V18.0001C221.4 17.6601 221.51 17.3901 221.74 17.1701C221.97 16.9601 222.23 16.8501 222.54 16.8501H228.42C228.75 16.8501 229.03 16.9601 229.26 17.1701C229.49 17.3901 229.6 17.6601 229.6 18.0001V36.7001C229.6 38.6901 230.06 40.1801 230.99 41.1801C231.92 42.1801 233.26 42.6701 235.02 42.6701C236.75 42.6701 238.09 42.1601 239.03 41.1501C239.97 40.1401 240.44 38.6501 240.44 36.6901V18.0001C240.44 17.6601 240.56 17.3901 240.78 17.1701C241.01 16.9601 241.27 16.8501 241.58 16.8501H247.51C247.84 16.8501 248.12 16.9601 248.33 17.1701C248.54 17.3901 248.65 17.6601 248.65 18.0001V36.7501C248.65 41.0101 247.44 44.1901 245.03 46.3001C242.61 48.4201 239.29 49.4701 235.07 49.4701C230.79 49.4801 227.44 48.4201 225.02 46.3001Z" fill="white"></path>
  <path d="M257.52 48.6701C257.29 48.4401 257.18 48.1701 257.18 47.8701V18.0001C257.18 17.6601 257.29 17.3901 257.52 17.1701C257.75 16.9601 258.02 16.8501 258.33 16.8501H270.83C274.84 16.8501 277.98 17.7601 280.23 19.5801C282.48 21.4001 283.61 23.9801 283.61 27.3201C283.61 29.4601 283.1 31.2901 282.09 32.7901C281.08 34.2901 279.69 35.4401 277.91 36.2401L284.2 47.5401C284.29 47.7201 284.34 47.8901 284.34 48.0501C284.34 48.2901 284.24 48.5201 284.04 48.7201C283.84 48.9201 283.62 49.0201 283.37 49.0201H277.26C276.37 49.0201 275.75 48.6001 275.38 47.7801L270.14 37.6701H265.45V47.8701C265.45 48.2101 265.34 48.4801 265.1 48.7001C264.87 48.9201 264.59 49.0201 264.25 49.0201H258.32C258.02 49.0201 257.75 48.9001 257.52 48.6701ZM270.73 31.1401C272.14 31.1401 273.21 30.7901 273.95 30.1101C274.68 29.4201 275.05 28.4601 275.05 27.2401C275.05 26.0201 274.69 25.0401 273.97 24.3201C273.25 23.6001 272.17 23.2401 270.73 23.2401H265.45V31.1401H270.73Z" fill="white"></path>
  <path d="M185.95 89.3701C185.73 89.1401 185.62 88.8701 185.62 88.5701V58.7101C185.62 58.3701 185.73 58.1001 185.95 57.8801C186.17 57.6701 186.43 57.5601 186.73 57.5601H193.17C193.88 57.5601 194.4 57.9001 194.72 58.5701L199.24 73.0401L203.76 58.5701C204.09 57.9001 204.6 57.5601 205.31 57.5601H211.7C212.03 57.5601 212.3 57.6701 212.52 57.8801C212.74 58.1001 212.85 58.3701 212.85 58.7101V88.5701C212.85 88.9101 212.74 89.1801 212.52 89.4001C212.3 89.6201 212.02 89.7201 211.7 89.7201H206.42C206.09 89.7201 205.82 89.6101 205.6 89.4001C205.38 89.1901 205.27 88.9101 205.27 88.5701V71.3401L201.95 80.9401C201.56 81.6401 201.05 82.0001 200.4 82.0001H198.09C197.71 82.0001 197.39 81.9101 197.16 81.7201C196.92 81.5401 196.72 81.2801 196.54 80.9401L193.17 71.3401V88.5701C193.17 88.8801 193.07 89.1401 192.86 89.3701C192.65 89.6001 192.39 89.7201 192.06 89.7201H186.74C186.43 89.7201 186.17 89.6001 185.95 89.3701Z" fill="white"></path>
  <path d="M185.96 130.08C185.73 129.85 185.62 129.58 185.62 129.28V99.42C185.62 99.08 185.73 98.81 185.96 98.59C186.19 98.38 186.46 98.27 186.77 98.27H211.71C212.05 98.27 212.32 98.38 212.54 98.59C212.76 98.81 212.86 99.08 212.86 99.42V103.74C212.86 104.05 212.75 104.31 212.54 104.54C212.33 104.77 212.05 104.89 211.71 104.89H193.57V111.09H210.13C210.47 111.09 210.74 111.2 210.96 111.43C211.17 111.66 211.28 111.94 211.28 112.28V116.28C211.28 116.59 211.17 116.85 210.96 117.08C210.74 117.31 210.47 117.43 210.13 117.43H193.57V123.82H211.71C212.05 123.82 212.32 123.93 212.54 124.14C212.76 124.36 212.86 124.63 212.86 124.97V129.29C212.86 129.6 212.75 129.86 212.54 130.09C212.33 130.32 212.05 130.44 211.71 130.44H186.77C186.46 130.43 186.19 130.31 185.96 130.08Z" fill="white"></path>
  <path d="M221.74 89.3701C221.51 89.1401 221.4 88.8701 221.4 88.5701V58.7101C221.4 58.3701 221.51 58.1001 221.74 57.8801C221.97 57.6701 222.24 57.5601 222.55 57.5601H247.49C247.83 57.5601 248.1 57.6701 248.32 57.8801C248.54 58.1001 248.64 58.3701 248.64 58.7101V63.0301C248.64 63.3401 248.53 63.6001 248.32 63.8301C248.11 64.0601 247.83 64.1801 247.49 64.1801H229.35V70.3801H245.91C246.25 70.3801 246.52 70.4901 246.74 70.7201C246.95 70.9501 247.06 71.2301 247.06 71.5701V75.5701C247.06 75.8801 246.95 76.1401 246.74 76.3701C246.52 76.6001 246.25 76.7201 245.91 76.7201H229.35V83.1101H247.49C247.83 83.1101 248.1 83.2201 248.32 83.4301C248.54 83.6501 248.64 83.9201 248.64 84.2601V88.5801C248.64 88.8901 248.53 89.1501 248.32 89.3801C248.11 89.6101 247.83 89.7301 247.49 89.7301H222.55C222.24 89.7201 221.97 89.6001 221.74 89.3701Z" fill="white"></path>
  <path d="M257.52 89.3701C257.29 89.1401 257.18 88.8701 257.18 88.5701V58.7101C257.18 58.3701 257.29 58.1001 257.52 57.8801C257.75 57.6701 258.02 57.5601 258.33 57.5601H270.83C274.84 57.5601 277.98 58.4701 280.23 60.2901C282.48 62.1101 283.61 64.6901 283.61 68.0301C283.61 70.1701 283.1 72.0001 282.09 73.5001C281.08 75.0001 279.69 76.1501 277.91 76.9501L284.2 88.2501C284.29 88.4301 284.34 88.6001 284.34 88.7601C284.34 89.0001 284.24 89.2301 284.04 89.4301C283.84 89.6301 283.62 89.7301 283.37 89.7301H277.26C276.37 89.7301 275.75 89.3101 275.38 88.4901L270.14 78.3801H265.45V88.5801C265.45 88.9201 265.34 89.1901 265.1 89.4101C264.87 89.6301 264.59 89.7301 264.25 89.7301H258.32C258.02 89.7201 257.75 89.6001 257.52 89.3701ZM270.73 71.8501C272.14 71.8501 273.21 71.5001 273.95 70.8201C274.68 70.1301 275.05 69.1701 275.05 67.9501C275.05 66.7301 274.69 65.7501 273.97 65.0301C273.25 64.3101 272.17 63.9501 270.73 63.9501H265.45V71.8501H270.73Z" fill="white"></path>
  <path d="M221.75 130.08C221.52 129.85 221.4 129.58 221.4 129.28V99.42C221.4 99.08 221.52 98.81 221.75 98.59C221.99 98.38 222.26 98.27 222.57 98.27H227.55C228.34 98.27 228.87 98.56 229.15 99.14L240.63 116.78V99.41C240.63 99.07 240.75 98.8 240.98 98.58C241.21 98.37 241.49 98.26 241.8 98.26H247.45C247.79 98.26 248.07 98.37 248.3 98.58C248.52 98.8 248.63 99.07 248.63 99.41V129.23C248.63 129.57 248.52 129.85 248.3 130.08C248.08 130.31 247.8 130.43 247.45 130.43H242.42C241.73 130.43 241.21 130.14 240.87 129.56L229.39 112.56V129.28C229.39 129.59 229.28 129.85 229.06 130.08C228.84 130.31 228.56 130.43 228.21 130.43H222.57C222.26 130.43 221.99 130.31 221.75 130.08Z" fill="white"></path>
  <path d="M257.52 130.08C257.29 129.85 257.18 129.58 257.18 129.28V99.42C257.18 99.08 257.29 98.81 257.52 98.59C257.75 98.38 258.02 98.27 258.33 98.27H269.99C274.49 98.27 277.99 99.34 280.47 101.48C282.95 103.62 284.25 106.73 284.38 110.81C284.41 111.7 284.42 112.88 284.42 114.35C284.42 115.82 284.4 116.98 284.38 117.84C284.23 122.1 282.96 125.26 280.59 127.33C278.22 129.4 274.76 130.43 270.23 130.43H258.34C258.02 130.43 257.75 130.31 257.52 130.08ZM269.99 123.81C272.01 123.81 273.5 123.33 274.45 122.36C275.4 121.39 275.9 119.85 275.97 117.74C276.03 116.85 276.06 115.7 276.06 114.29C276.06 112.88 276.03 111.75 275.97 110.89C275.91 108.84 275.36 107.32 274.34 106.34C273.31 105.36 271.79 104.87 269.77 104.87H265.46V123.8H269.99V123.81Z" fill="white"></path>
  <path opacity="0.75" d="M41.9099 20.22C37.9999 16.73 31.9899 16.86 31.9899 16.86H28.0999L22.6499 22.31L25.8299 25.48C28.8199 25.48 31.5099 25.48 32.9899 25.48C35.8399 25.48 37.1699 27.77 37.7799 29.96L44.4199 23.32C43.7199 22.15 42.8899 21.1 41.9099 20.22Z" fill="white"></path>
  <path opacity="0.75" d="M46.0103 0.110001C45.5403 0.160001 45.0803 0.220001 44.6403 0.310001C40.8003 1.09 38.4903 3.38 37.7903 7.16C37.6303 8 37.5503 8.89 37.5503 9.88V12.78C39.8003 13.36 42.3603 14.43 44.7203 16.48C44.9403 16.67 46.1903 17.9 46.1903 17.9V11.53C46.1903 8.73 48.5803 8.64 49.5503 8.64H54.5503H59.0903L67.7303 0H47.9003C47.2303 0 46.6103 0.0400006 46.0103 0.110001Z" fill="white"></path>
  <path opacity="0.75" d="M141.98 16.86H131.09H127.34C127.34 16.86 121.33 16.73 117.42 20.22C116.41 21.12 115.56 22.2 114.86 23.4L121.53 30.07C122.13 27.85 123.45 25.48 126.36 25.47C127.81 25.47 130.44 25.47 133.37 25.47L136.55 22.29L141.98 16.86Z" fill="white"></path>
  <path opacity="0.75" d="M4.5901 31.74C5.0301 33.22 5.6601 34.63 6.3701 36.01C6.6701 36.58 6.9901 37.12 7.3301 37.63L11.2701 33.69L2.6001 25.02L4.5901 31.74Z" fill="white"></path>
  <path opacity="0.75" d="M113.63 67.73C113.6 67.85 113.58 67.96 113.54 68.08L113.76 67.86L113.63 67.73Z" fill="white"></path>
  <path opacity="0.75" d="M90.5301 67.4001L90.9901 67.8601L101.57 78.4401L101.85 78.1401C99.6101 71.1001 98.4401 64.6401 98.6101 60.5501C98.6101 60.4501 98.6301 60.3301 98.6401 60.2101C98.7601 58.6801 99.2701 56.5501 100.35 54.4401L93.9901 48.0801C92.2701 50.7601 91.1301 53.7901 90.5601 56.8801C89.9401 60.1401 90.0201 63.7201 90.5301 67.4001Z" fill="white"></path>
  <path opacity="0.75" d="M45.4302 67.8601L45.8502 68.2801C45.7902 68.0501 45.7302 67.8201 45.6802 67.6001L45.4302 67.8601Z" fill="white"></path>
  <path opacity="0.75" d="M54.3901 81.6701C48.7501 75.2401 46.6901 71.3001 45.8501 68.2801L45.4301 67.8601L38.8901 74.4001C40.5701 78.1901 43.4201 82.4201 48.2501 87.8201C49.6101 89.3401 51.1201 90.9401 52.8001 92.6601C55.2301 95.1301 57.4401 97.3801 59.4301 99.4201L65.5901 93.2601C64.6401 92.3101 63.6401 91.3101 62.5601 90.2501C59.2201 86.9601 56.5501 84.1401 54.3901 81.6701Z" fill="white"></path>
  <path opacity="0.75" d="M51.3099 98.0601C50.6799 101.43 50.1599 105 50.2599 108.59L56.1299 102.72L51.3599 97.8501L51.3099 98.0601Z" fill="white"></path>
  <path opacity="0.75" d="M92.7301 120.92C87.2101 123.9 81.8001 124.2 80.1801 124.22L79.6001 124.8L72.3101 132.09C74.5501 132.56 77.0101 132.86 79.6601 132.86C79.6601 132.86 79.6601 132.86 79.6701 132.86C79.6801 132.86 79.6701 132.86 79.6801 132.86C82.2901 132.86 84.7001 132.57 86.9101 132.11C90.9701 131.27 94.3201 129.86 96.7601 128.56C98.7501 127.5 100.61 126.19 102.23 124.65L96.1001 118.52C95.0901 119.46 93.9501 120.26 92.7301 120.92Z" fill="white"></path>
  <path d="M100.1 8.64001H104.64H109.79C110.76 8.64001 113.15 8.72001 113.15 11.53V17.9C113.15 17.9 114.4 16.67 114.62 16.48C116.98 14.43 119.54 13.36 121.79 12.78V9.88001C121.79 8.97001 121.72 8.13001 121.58 7.35001C120.9 3.39001 118.52 1.03001 114.51 0.28001C114.09 0.20001 113.65 0.14001 113.19 0.10001C112.63 0.0500099 112.05 0.0100098 111.44 0.0100098H91.4604L100.1 8.64001Z" fill="white"></path>
  <path d="M19.4702 25.4801C21.5302 25.4801 23.7402 25.4801 25.8302 25.4701L22.6502 22.3001L28.1002 16.8501H17.2002L22.6502 22.3001L19.4702 25.4801Z" fill="white"></path>
  <path d="M77.3203 8.64L68.6803 0H67.7203L59.0903 8.64H77.3203Z" fill="white"></path>
  <path d="M122.37 53.6901C122.3 53.0201 122.22 52.3801 122.15 51.8401H120.51L113.42 51.8301C113.78 54.2901 114.45 59.9901 114.06 64.8101C113.98 65.7301 113.88 66.6801 113.63 67.7301L113.76 67.8601L113.54 68.0801C112.74 71.1401 110.69 75.1301 104.88 81.7601C102.73 84.2001 100.08 87.0001 96.7802 90.2501C95.6802 91.3401 94.6402 92.3601 93.6802 93.3401L99.8402 99.5001C101.85 97.4501 104.08 95.1701 106.54 92.6701C108.2 90.9801 109.69 89.4001 111.02 87.9101C115.85 82.5301 118.71 78.3001 120.41 74.5201L113.77 67.8801L122.77 58.8801C122.68 56.9601 122.53 55.1901 122.37 53.6901Z" fill="white"></path>
  <path d="M121.53 30.0699L114.86 23.3999C113.22 26.1699 112.38 29.6899 112.38 33.8599L121.02 33.8699C121.02 33.8699 121 32.0299 121.53 30.0699Z" fill="white"></path>
  <path d="M156.05 16.8601H153.87H141.98L136.53 22.3101L139.71 25.4901C142.28 25.4901 144.6 25.5001 146.04 25.5001C146.82 25.5001 147.37 26.2501 147.15 27.0001L146.5 29.2001C146.27 29.9601 145.99 30.7101 145.63 31.4101L147.92 33.7001L151.95 37.7301C152.31 37.1901 152.65 36.6201 152.96 36.0201C153.67 34.6501 154.3 33.2301 154.74 31.7501L156.8 24.8201L157.95 20.9601L158.27 19.8701C158.73 18.3601 157.61 16.8601 156.05 16.8601Z" fill="white"></path>
  <path d="M45.4302 67.8601L45.8502 68.2801L45.4302 67.8601Z" fill="white"></path>
  <path d="M57.7002 78.36L64.2002 85.31C65.9902 79.89 67.7902 74 68.6602 68.33C68.7202 67.96 68.7802 67.6 68.8202 67.23C69.3002 63.61 69.3702 60.09 68.7702 56.89C68.1902 53.76 67.0302 50.7 65.2802 48L58.9302 54.35C60.0802 56.57 60.6102 58.82 60.7002 60.38C60.7002 60.44 60.7102 60.5 60.7102 60.55C60.8802 64.64 59.7102 71.09 57.4702 78.14L57.7002 78.36Z" fill="white"></path>
  <path d="M107.98 97.8401L103.13 102.79L109.07 108.73C109.19 105.09 108.66 101.48 108.02 98.0601L107.98 97.8401Z" fill="white"></path>
  <path d="M82.5104 104.94C82.0404 105.43 81.6204 105.85 81.2704 106.19C80.3704 107.05 78.9604 107.05 78.0704 106.19C77.6904 105.83 77.2604 105.38 76.7504 104.86C74.6204 102.64 71.2304 98.92 65.5804 93.25L59.4204 99.41C66.3604 106.5 70.4904 110.76 70.4904 110.76C70.4904 110.76 70.5604 110.83 70.6704 110.94C71.6104 111.86 76.1904 116.15 79.6604 116.16C79.6604 116.16 79.6604 116.16 79.6704 116.16C79.6704 116.16 79.6704 116.16 79.6804 116.16C83.0604 116.15 87.4904 112.07 88.5904 111.01L82.5104 104.94Z" fill="white"></path>
  <path d="M79.6705 124.22C79.6605 124.22 79.6605 124.22 79.6605 124.22C79.6205 124.22 79.3905 124.23 79.0105 124.22C77.2205 124.18 71.9705 123.81 66.6105 120.92C65.3605 120.25 64.2005 119.42 63.1605 118.46C62.5105 117.86 61.9005 117.22 61.3905 116.49C59.2005 113.4 58.6305 109.97 58.9705 105.6L56.1405 102.71L50.2705 108.58C50.3905 112.94 51.4305 117.34 54.3505 121.47C55.1505 122.6 56.0505 123.63 57.0405 124.58C58.6905 126.15 60.5705 127.48 62.5905 128.55C65.0105 129.84 68.3105 131.24 72.3105 132.08L79.6005 124.79L80.1805 124.21C79.8905 124.22 79.7005 124.22 79.6705 124.22Z" fill="white"></path>
  <path d="M13.7803 31.5801C13.7303 31.4901 13.7003 31.4001 13.6503 31.3101L11.2603 33.7001L7.32031 37.6401C10.5403 42.6001 15.4503 45.0201 21.5603 46.1801L22.6403 45.1001L29.2703 38.4701C23.0403 38.1801 16.7503 36.9501 13.7803 31.5801Z" fill="white"></path>
  <path d="M107.64 38.9601C101.31 40.1601 96.8302 43.6401 93.9902 48.0801L100.35 54.4401C102.22 50.7701 105.75 47.2101 111.7 47.1501L113.77 45.0801L120.34 38.5101C117.7 38.5001 113.65 38.4901 112.25 38.5101C110.61 38.5301 109.08 38.6901 107.64 38.9601Z" fill="white"></path>
  <path opacity="0.5" d="M13.2801 25.4901C14.7001 25.4901 16.9501 25.4901 19.4601 25.4801L22.6401 22.3001L17.1901 16.8501H5.3201H3.2901C1.7301 16.8501 0.610097 18.3501 1.0501 19.8501L1.3401 20.8301L2.59009 25.0201L11.2601 33.6901L13.6501 31.3001C13.3101 30.6301 13.0401 29.9101 12.8201 29.1901L12.1701 26.9901C11.9501 26.2401 12.5001 25.4901 13.2801 25.4901Z" fill="white"></path>
  <path opacity="0.5" d="M91.4602 0H90.5002H68.6802L77.3202 8.64H81.8602H100.1L91.4602 0Z" fill="white"></path>
  <path opacity="0.5" d="M51.5703 38.94C50.1703 38.68 48.6803 38.53 47.1003 38.51C45.6703 38.49 41.4903 38.5 38.8603 38.51C37.5503 38.51 36.6203 38.52 36.6203 38.52C34.3303 38.52 31.8103 38.57 29.2803 38.46L22.6503 45.09L21.5703 46.17C22.4103 46.33 23.2703 46.46 24.1503 46.58C29.8003 47.31 36.3103 47.22 43.3503 47.17C44.7103 47.16 46.0903 47.15 47.4903 47.15H47.5003C53.4903 47.15 57.0403 50.69 58.9403 54.35L65.2903 48C62.4203 43.57 57.9303 40.11 51.5703 38.94Z" fill="white"></path>
  <path opacity="0.5" d="M46.9603 33.8601C46.9603 29.6501 46.1003 26.0901 44.4203 23.3101L37.7803 29.9501C38.3503 31.9501 38.3203 33.8701 38.3203 33.8701L46.9603 33.8601Z" fill="white"></path>
  <path opacity="0.5" d="M38.6699 51.8301H37.1799C37.1099 52.3301 37.0399 52.9101 36.9799 53.5201C36.8099 55.0901 36.6499 56.9801 36.5699 59.0001C36.4899 61.1101 36.4899 63.3501 36.6599 65.5101C36.8999 68.4401 37.4899 71.2701 38.8799 74.3901L45.4199 67.8501L45.6699 67.6001C45.4399 66.5901 45.3399 65.6801 45.2699 64.8001C44.8699 59.9801 45.5399 54.2801 45.9099 51.8201L38.6699 51.8301Z" fill="white"></path>
  <path opacity="0.5" d="M122.76 58.8601L113.76 67.8601L120.4 74.5001C121.82 71.3301 122.42 68.4801 122.66 65.5101C122.85 63.3001 122.85 61.0101 122.76 58.8601Z" fill="white"></path>
  <path opacity="0.5" d="M147.93 33.6899L145.64 31.3999C145.61 31.4599 145.59 31.5199 145.56 31.5699C142.56 36.9799 136.2 38.1899 129.92 38.4499C127.44 38.5499 124.97 38.5099 122.73 38.5099C122.73 38.5099 121.73 38.5099 120.34 38.4999L113.77 45.0699L111.7 47.1399C111.75 47.1399 111.79 47.1299 111.84 47.1299C113.19 47.1299 114.53 47.1399 115.85 47.1499C122.88 47.1999 129.38 47.2999 135.03 46.5799C135.93 46.4699 136.8 46.3299 137.65 46.1699C143.78 45.0299 148.71 42.6399 151.96 37.6999L147.93 33.6899Z" fill="white"></path>
  <path opacity="0.5" d="M139.72 25.48L136.54 22.3L133.36 25.48C135.44 25.48 137.66 25.48 139.72 25.48Z" fill="white"></path>
  <path opacity="0.5" d="M90.5303 67.3999C90.5703 67.6599 90.6103 67.9299 90.6503 68.1899C91.5103 73.8999 93.3303 79.8499 95.1303 85.2999L101.56 78.4299L90.9803 67.8499L90.5303 67.3999Z" fill="white"></path>
  <path opacity="0.5" d="M100.38 105.61C100.72 109.98 100.15 113.41 97.9599 116.5C97.4299 117.25 96.7899 117.92 96.1099 118.54L102.24 124.67C103.26 123.7 104.19 122.65 105.01 121.49C107.9 117.4 108.95 113.05 109.09 108.74L103.15 102.8L100.38 105.61Z" fill="white"></path>
  <path opacity="0.5" d="M99.84 99.4901L93.68 93.3301C88.01 99.0201 84.64 102.74 82.52 104.94L88.59 111.01C88.75 110.85 88.85 110.76 88.85 110.76C88.85 110.76 92.94 106.54 99.84 99.4901Z" fill="white"></path>
</svg>